<svg xmlns="http://www.w3.org/2000/svg" xmlns:xlink="http://www.w3.org/1999/xlink" width="500" zoomAndPan="magnify" viewBox="0 0 375 374.999991" height="500" preserveAspectRatio="xMidYMid meet" version="1.0"><defs><clipPath id="58d5898964"><path d="M 5.246094 5.246094 L 369.746094 5.246094 L 369.746094 369.746094 L 5.246094 369.746094 Z M 5.246094 5.246094 " clip-rule="nonzero"/></clipPath><clipPath id="64d9343194"><path d="M 369.746094 187.496094 C 369.746094 190.476562 369.671875 193.457031 369.527344 196.4375 C 369.378906 199.417969 369.160156 202.390625 368.867188 205.359375 C 368.574219 208.328125 368.210938 211.285156 367.773438 214.238281 C 367.335938 217.1875 366.824219 220.125 366.242188 223.050781 C 365.660156 225.976562 365.007812 228.886719 364.28125 231.777344 C 363.558594 234.671875 362.761719 237.546875 361.898438 240.398438 C 361.03125 243.253906 360.097656 246.085938 359.089844 248.894531 C 358.085938 251.703125 357.011719 254.484375 355.871094 257.238281 C 354.730469 259.996094 353.523438 262.71875 352.246094 265.417969 C 350.972656 268.113281 349.632812 270.777344 348.226562 273.40625 C 346.820312 276.039062 345.347656 278.632812 343.816406 281.191406 C 342.28125 283.75 340.6875 286.265625 339.03125 288.746094 C 337.375 291.226562 335.65625 293.664062 333.878906 296.0625 C 332.101562 298.457031 330.269531 300.808594 328.375 303.113281 C 326.484375 305.417969 324.535156 307.675781 322.535156 309.886719 C 320.53125 312.097656 318.472656 314.257812 316.363281 316.363281 C 314.257812 318.472656 312.097656 320.53125 309.886719 322.535156 C 307.675781 324.535156 305.417969 326.484375 303.113281 328.375 C 300.808594 330.269531 298.457031 332.101562 296.0625 333.878906 C 293.664062 335.65625 291.226562 337.375 288.746094 339.03125 C 286.269531 340.6875 283.75 342.28125 281.191406 343.816406 C 278.632812 345.347656 276.039062 346.820312 273.40625 348.226562 C 270.777344 349.632812 268.113281 350.972656 265.417969 352.246094 C 262.71875 353.523438 259.996094 354.730469 257.238281 355.871094 C 254.484375 357.011719 251.703125 358.085938 248.894531 359.089844 C 246.085938 360.097656 243.253906 361.03125 240.398438 361.898438 C 237.546875 362.761719 234.671875 363.558594 231.777344 364.28125 C 228.886719 365.007812 225.976562 365.660156 223.050781 366.242188 C 220.125 366.824219 217.1875 367.335938 214.238281 367.773438 C 211.285156 368.210938 208.328125 368.574219 205.359375 368.867188 C 202.390625 369.160156 199.417969 369.378906 196.4375 369.523438 C 193.457031 369.671875 190.476562 369.746094 187.496094 369.746094 C 184.511719 369.746094 181.53125 369.671875 178.550781 369.523438 C 175.574219 369.378906 172.601562 369.160156 169.632812 368.867188 C 166.664062 368.574219 163.703125 368.210938 160.753906 367.773438 C 157.804688 367.335938 154.863281 366.824219 151.941406 366.242188 C 149.015625 365.660156 146.105469 365.007812 143.210938 364.28125 C 140.320312 363.558594 137.445312 362.761719 134.589844 361.898438 C 131.738281 361.03125 128.90625 360.097656 126.097656 359.089844 C 123.289062 358.085938 120.507812 357.011719 117.75 355.871094 C 114.996094 354.730469 112.269531 353.523438 109.574219 352.246094 C 106.875 350.972656 104.214844 349.632812 101.582031 348.226562 C 98.953125 346.820312 96.359375 345.347656 93.800781 343.816406 C 91.242188 342.28125 88.722656 340.6875 86.242188 339.03125 C 83.761719 337.375 81.324219 335.65625 78.929688 333.878906 C 76.53125 332.101562 74.183594 330.269531 71.875 328.375 C 69.570312 326.484375 67.3125 324.535156 65.101562 322.535156 C 62.894531 320.53125 60.734375 318.472656 58.625 316.363281 C 56.515625 314.257812 54.460938 312.097656 52.457031 309.886719 C 50.453125 307.675781 48.507812 305.417969 46.613281 303.113281 C 44.722656 300.808594 42.886719 298.457031 41.109375 296.0625 C 39.332031 293.664062 37.617188 291.226562 35.960938 288.746094 C 34.300781 286.265625 32.707031 283.75 31.175781 281.191406 C 29.640625 278.632812 28.171875 276.039062 26.765625 273.40625 C 25.359375 270.777344 24.019531 268.113281 22.742188 265.417969 C 21.46875 262.71875 20.257812 259.996094 19.117188 257.238281 C 17.976562 254.484375 16.902344 251.703125 15.898438 248.894531 C 14.894531 246.085938 13.957031 243.253906 13.09375 240.398438 C 12.226562 237.546875 11.429688 234.671875 10.707031 231.777344 C 9.980469 228.886719 9.328125 225.976562 8.746094 223.050781 C 8.164062 220.125 7.65625 217.1875 7.21875 214.238281 C 6.78125 211.285156 6.414062 208.328125 6.121094 205.359375 C 5.832031 202.390625 5.609375 199.417969 5.464844 196.4375 C 5.316406 193.457031 5.246094 190.476562 5.246094 187.496094 C 5.246094 184.511719 5.316406 181.53125 5.464844 178.550781 C 5.609375 175.574219 5.832031 172.601562 6.121094 169.632812 C 6.414062 166.664062 6.78125 163.703125 7.21875 160.753906 C 7.65625 157.804688 8.164062 154.863281 8.746094 151.941406 C 9.328125 149.015625 9.980469 146.105469 10.707031 143.210938 C 11.429688 140.320312 12.226562 137.445312 13.09375 134.589844 C 13.957031 131.734375 14.894531 128.90625 15.898438 126.097656 C 16.902344 123.289062 17.976562 120.507812 19.117188 117.75 C 20.257812 114.996094 21.46875 112.269531 22.742188 109.574219 C 24.019531 106.875 25.359375 104.214844 26.765625 101.582031 C 28.171875 98.953125 29.640625 96.359375 31.175781 93.800781 C 32.707031 91.242188 34.300781 88.722656 35.960938 86.242188 C 37.617188 83.761719 39.332031 81.324219 41.109375 78.929688 C 42.886719 76.53125 44.722656 74.183594 46.613281 71.875 C 48.507812 69.570312 50.453125 67.3125 52.457031 65.101562 C 54.460938 62.894531 56.515625 60.734375 58.625 58.625 C 60.734375 56.515625 62.894531 54.460938 65.101562 52.457031 C 67.3125 50.453125 69.570312 48.507812 71.875 46.613281 C 74.183594 44.722656 76.53125 42.886719 78.929688 41.109375 C 81.324219 39.332031 83.761719 37.617188 86.242188 35.960938 C 88.722656 34.300781 91.242188 32.707031 93.800781 31.175781 C 96.359375 29.640625 98.953125 28.171875 101.582031 26.765625 C 104.214844 25.359375 106.875 24.019531 109.574219 22.742188 C 112.269531 21.46875 114.996094 20.257812 117.75 19.117188 C 120.507812 17.976562 123.289062 16.902344 126.097656 15.898438 C 128.90625 14.894531 131.738281 13.957031 134.589844 13.09375 C 137.445312 12.226562 140.320312 11.429688 143.210938 10.707031 C 146.105469 9.980469 149.015625 9.328125 151.941406 8.746094 C 154.863281 8.164062 157.804688 7.65625 160.753906 7.21875 C 163.703125 6.78125 166.664062 6.414062 169.632812 6.121094 C 172.601562 5.832031 175.574219 5.609375 178.550781 5.464844 C 181.53125 5.316406 184.511719 5.246094 187.496094 5.246094 C 190.476562 5.246094 193.457031 5.316406 196.4375 5.464844 C 199.417969 5.609375 202.390625 5.832031 205.359375 6.121094 C 208.328125 6.414062 211.285156 6.78125 214.238281 7.21875 C 217.1875 7.65625 220.125 8.164062 223.050781 8.746094 C 225.976562 9.328125 228.886719 9.980469 231.777344 10.707031 C 234.671875 11.429688 237.546875 12.226562 240.398438 13.09375 C 243.253906 13.957031 246.085938 14.894531 248.894531 15.898438 C 251.703125 16.902344 254.484375 17.976562 257.238281 19.117188 C 259.996094 20.257812 262.71875 21.46875 265.417969 22.742188 C 268.113281 24.019531 270.777344 25.359375 273.40625 26.765625 C 276.039062 28.171875 278.632812 29.640625 281.191406 31.175781 C 283.75 32.707031 286.269531 34.300781 288.746094 35.960938 C 291.226562 37.617188 293.664062 39.332031 296.0625 41.109375 C 298.457031 42.886719 300.808594 44.722656 303.113281 46.613281 C 305.417969 48.507812 307.675781 50.453125 309.886719 52.457031 C 312.097656 54.460938 314.257812 56.515625 316.363281 58.625 C 318.472656 60.734375 320.53125 62.894531 322.535156 65.101562 C 324.535156 67.3125 326.484375 69.570312 328.375 71.875 C 330.269531 74.183594 332.101562 76.53125 333.878906 78.929688 C 335.65625 81.324219 337.375 83.761719 339.03125 86.242188 C 340.6875 88.722656 342.28125 91.242188 343.816406 93.800781 C 345.347656 96.359375 346.820312 98.953125 348.226562 101.582031 C 349.632812 104.214844 350.972656 106.875 352.246094 109.574219 C 353.523438 112.269531 354.730469 114.996094 355.871094 117.75 C 357.011719 120.507812 358.085938 123.289062 359.089844 126.097656 C 360.097656 128.90625 361.03125 131.734375 361.898438 134.589844 C 362.761719 137.445312 363.558594 140.320312 364.28125 143.210938 C 365.007812 146.105469 365.660156 149.015625 366.242188 151.941406 C 366.824219 154.863281 367.335938 157.804688 367.773438 160.753906 C 368.210938 163.703125 368.574219 166.664062 368.867188 169.632812 C 369.160156 172.601562 369.378906 175.574219 369.527344 178.550781 C 369.671875 181.53125 369.746094 184.511719 369.746094 187.496094 Z M 369.746094 187.496094 " clip-rule="nonzero"/></clipPath><linearGradient x1="-0.0000000129747" gradientTransform="matrix(364.499991, 0, 0, 364.499991, 5.244979, 5.24497)" y1="-0.0000000128475" x2="1.004902" gradientUnits="userSpaceOnUse" y2="0.995049" id="0a5b3b06b8"><stop stop-opacity="1" stop-color="rgb(0%, 7.099915%, 12.5%)" offset="0"/><stop stop-opacity="1" stop-color="rgb(0.0213623%, 7.203674%, 12.661743%)" offset="0.0078125"/><stop stop-opacity="1" stop-color="rgb(0.0671387%, 7.411194%, 12.985229%)" offset="0.015625"/><stop stop-opacity="1" stop-color="rgb(0.112915%, 7.620239%, 13.310242%)" offset="0.0234375"/><stop stop-opacity="1" stop-color="rgb(0.158691%, 7.827759%, 13.633728%)" offset="0.03125"/><stop stop-opacity="1" stop-color="rgb(0.204468%, 8.036804%, 13.95874%)" offset="0.0390625"/><stop stop-opacity="1" stop-color="rgb(0.250244%, 8.24585%, 14.282227%)" offset="0.046875"/><stop stop-opacity="1" stop-color="rgb(0.294495%, 8.453369%, 14.607239%)" offset="0.0546875"/><stop stop-opacity="1" stop-color="rgb(0.340271%, 8.662415%, 14.930725%)" offset="0.0625"/><stop stop-opacity="1" stop-color="rgb(0.386047%, 8.869934%, 15.255737%)" offset="0.0703125"/><stop stop-opacity="1" stop-color="rgb(0.431824%, 9.078979%, 15.579224%)" offset="0.078125"/><stop stop-opacity="1" stop-color="rgb(0.4776%, 9.288025%, 15.904236%)" offset="0.0859375"/><stop stop-opacity="1" stop-color="rgb(0.523376%, 9.495544%, 16.227722%)" offset="0.09375"/><stop stop-opacity="1" stop-color="rgb(0.569153%, 9.70459%, 16.552734%)" offset="0.101562"/><stop stop-opacity="1" stop-color="rgb(0.613403%, 9.912109%, 16.876221%)" offset="0.109375"/><stop stop-opacity="1" stop-color="rgb(0.65918%, 10.121155%, 17.201233%)" offset="0.117188"/><stop stop-opacity="1" stop-color="rgb(0.704956%, 10.3302%, 17.524719%)" offset="0.125"/><stop stop-opacity="1" stop-color="rgb(0.750732%, 10.53772%, 17.849731%)" offset="0.132812"/><stop stop-opacity="1" stop-color="rgb(0.796509%, 10.746765%, 18.173218%)" offset="0.140625"/><stop stop-opacity="1" stop-color="rgb(0.842285%, 10.955811%, 18.49823%)" offset="0.148438"/><stop stop-opacity="1" stop-color="rgb(0.888062%, 11.16333%, 18.821716%)" offset="0.15625"/><stop stop-opacity="1" stop-color="rgb(0.932312%, 11.372375%, 19.146729%)" offset="0.164062"/><stop stop-opacity="1" stop-color="rgb(0.978088%, 11.579895%, 19.470215%)" offset="0.171875"/><stop stop-opacity="1" stop-color="rgb(1.023865%, 11.78894%, 19.795227%)" offset="0.179688"/><stop stop-opacity="1" stop-color="rgb(1.069641%, 11.997986%, 20.118713%)" offset="0.1875"/><stop stop-opacity="1" stop-color="rgb(1.115417%, 12.205505%, 20.443726%)" offset="0.195312"/><stop stop-opacity="1" stop-color="rgb(1.161194%, 12.414551%, 20.767212%)" offset="0.203125"/><stop stop-opacity="1" stop-color="rgb(1.205444%, 12.62207%, 21.092224%)" offset="0.210938"/><stop stop-opacity="1" stop-color="rgb(1.251221%, 12.831116%, 21.41571%)" offset="0.21875"/><stop stop-opacity="1" stop-color="rgb(1.296997%, 13.040161%, 21.740723%)" offset="0.226563"/><stop stop-opacity="1" stop-color="rgb(1.342773%, 13.247681%, 22.064209%)" offset="0.234375"/><stop stop-opacity="1" stop-color="rgb(1.38855%, 13.456726%, 22.389221%)" offset="0.242188"/><stop stop-opacity="1" stop-color="rgb(1.434326%, 13.664246%, 22.712708%)" offset="0.25"/><stop stop-opacity="1" stop-color="rgb(1.480103%, 13.873291%, 23.03772%)" offset="0.257812"/><stop stop-opacity="1" stop-color="rgb(1.524353%, 14.082336%, 23.361206%)" offset="0.265625"/><stop stop-opacity="1" stop-color="rgb(1.570129%, 14.289856%, 23.686218%)" offset="0.273438"/><stop stop-opacity="1" stop-color="rgb(1.615906%, 14.498901%, 24.009705%)" offset="0.28125"/><stop stop-opacity="1" stop-color="rgb(1.661682%, 14.706421%, 24.334717%)" offset="0.289062"/><stop stop-opacity="1" stop-color="rgb(1.707458%, 14.915466%, 24.658203%)" offset="0.296875"/><stop stop-opacity="1" stop-color="rgb(1.753235%, 15.124512%, 24.983215%)" offset="0.304688"/><stop stop-opacity="1" stop-color="rgb(1.799011%, 15.332031%, 25.306702%)" offset="0.3125"/><stop stop-opacity="1" stop-color="rgb(1.843262%, 15.541077%, 25.631714%)" offset="0.320312"/><stop stop-opacity="1" stop-color="rgb(1.889038%, 15.750122%, 25.9552%)" offset="0.328125"/><stop stop-opacity="1" stop-color="rgb(1.934814%, 15.957642%, 26.280212%)" offset="0.335938"/><stop stop-opacity="1" stop-color="rgb(1.980591%, 16.166687%, 26.603699%)" offset="0.34375"/><stop stop-opacity="1" stop-color="rgb(2.026367%, 16.374207%, 26.928711%)" offset="0.351562"/><stop stop-opacity="1" stop-color="rgb(2.072144%, 16.583252%, 27.252197%)" offset="0.359375"/><stop stop-opacity="1" stop-color="rgb(2.11792%, 16.792297%, 27.577209%)" offset="0.367188"/><stop stop-opacity="1" stop-color="rgb(2.16217%, 16.999817%, 27.900696%)" offset="0.375"/><stop stop-opacity="1" stop-color="rgb(2.207947%, 17.208862%, 28.225708%)" offset="0.382812"/><stop stop-opacity="1" stop-color="rgb(2.253723%, 17.416382%, 28.549194%)" offset="0.390625"/><stop stop-opacity="1" stop-color="rgb(2.2995%, 17.625427%, 28.874207%)" offset="0.398438"/><stop stop-opacity="1" stop-color="rgb(2.345276%, 17.834473%, 29.197693%)" offset="0.40625"/><stop stop-opacity="1" stop-color="rgb(2.391052%, 18.041992%, 29.522705%)" offset="0.414062"/><stop stop-opacity="1" stop-color="rgb(2.435303%, 18.251038%, 29.846191%)" offset="0.421875"/><stop stop-opacity="1" stop-color="rgb(2.481079%, 18.458557%, 30.171204%)" offset="0.429688"/><stop stop-opacity="1" stop-color="rgb(2.526855%, 18.667603%, 30.49469%)" offset="0.4375"/><stop stop-opacity="1" stop-color="rgb(2.572632%, 18.876648%, 30.819702%)" offset="0.445313"/><stop stop-opacity="1" stop-color="rgb(2.618408%, 19.084167%, 31.143188%)" offset="0.453125"/><stop stop-opacity="1" stop-color="rgb(2.664185%, 19.293213%, 31.468201%)" offset="0.460938"/><stop stop-opacity="1" stop-color="rgb(2.709961%, 19.500732%, 31.791687%)" offset="0.46875"/><stop stop-opacity="1" stop-color="rgb(2.754211%, 19.709778%, 32.116699%)" offset="0.476563"/><stop stop-opacity="1" stop-color="rgb(2.799988%, 19.918823%, 32.440186%)" offset="0.484375"/><stop stop-opacity="1" stop-color="rgb(2.845764%, 20.126343%, 32.765198%)" offset="0.492188"/><stop stop-opacity="1" stop-color="rgb(2.891541%, 20.335388%, 33.088684%)" offset="0.497537"/><stop stop-opacity="1" stop-color="rgb(2.914429%, 20.440674%, 33.251953%)" offset="0.5"/><stop stop-opacity="1" stop-color="rgb(2.937317%, 20.544434%, 33.413696%)" offset="0.502463"/><stop stop-opacity="1" stop-color="rgb(2.960205%, 20.648193%, 33.575439%)" offset="0.507812"/><stop stop-opacity="1" stop-color="rgb(2.983093%, 20.751953%, 33.737183%)" offset="0.515625"/><stop stop-opacity="1" stop-color="rgb(3.02887%, 20.960999%, 34.062195%)" offset="0.523438"/><stop stop-opacity="1" stop-color="rgb(3.07312%, 21.168518%, 34.385681%)" offset="0.53125"/><stop stop-opacity="1" stop-color="rgb(3.118896%, 21.377563%, 34.710693%)" offset="0.539062"/><stop stop-opacity="1" stop-color="rgb(3.164673%, 21.586609%, 35.03418%)" offset="0.546875"/><stop stop-opacity="1" stop-color="rgb(3.210449%, 21.794128%, 35.359192%)" offset="0.554688"/><stop stop-opacity="1" stop-color="rgb(3.256226%, 22.003174%, 35.682678%)" offset="0.5625"/><stop stop-opacity="1" stop-color="rgb(3.302002%, 22.210693%, 36.00769%)" offset="0.570312"/><stop stop-opacity="1" stop-color="rgb(3.347778%, 22.419739%, 36.331177%)" offset="0.578125"/><stop stop-opacity="1" stop-color="rgb(3.392029%, 22.628784%, 36.656189%)" offset="0.585938"/><stop stop-opacity="1" stop-color="rgb(3.437805%, 22.836304%, 36.979675%)" offset="0.59375"/><stop stop-opacity="1" stop-color="rgb(3.483582%, 23.045349%, 37.304688%)" offset="0.601562"/><stop stop-opacity="1" stop-color="rgb(3.529358%, 23.252869%, 37.628174%)" offset="0.609375"/><stop stop-opacity="1" stop-color="rgb(3.575134%, 23.461914%, 37.953186%)" offset="0.617188"/><stop stop-opacity="1" stop-color="rgb(3.620911%, 23.670959%, 38.276672%)" offset="0.625"/><stop stop-opacity="1" stop-color="rgb(3.665161%, 23.878479%, 38.601685%)" offset="0.632812"/><stop stop-opacity="1" stop-color="rgb(3.710938%, 24.087524%, 38.925171%)" offset="0.640625"/><stop stop-opacity="1" stop-color="rgb(3.756714%, 24.295044%, 39.250183%)" offset="0.648438"/><stop stop-opacity="1" stop-color="rgb(3.80249%, 24.504089%, 39.573669%)" offset="0.65625"/><stop stop-opacity="1" stop-color="rgb(3.848267%, 24.713135%, 39.898682%)" offset="0.664062"/><stop stop-opacity="1" stop-color="rgb(3.894043%, 24.920654%, 40.222168%)" offset="0.671875"/><stop stop-opacity="1" stop-color="rgb(3.939819%, 25.1297%, 40.54718%)" offset="0.679688"/><stop stop-opacity="1" stop-color="rgb(3.98407%, 25.338745%, 40.870667%)" offset="0.6875"/><stop stop-opacity="1" stop-color="rgb(4.029846%, 25.546265%, 41.195679%)" offset="0.695312"/><stop stop-opacity="1" stop-color="rgb(4.075623%, 25.75531%, 41.519165%)" offset="0.703125"/><stop stop-opacity="1" stop-color="rgb(4.121399%, 25.96283%, 41.844177%)" offset="0.710938"/><stop stop-opacity="1" stop-color="rgb(4.167175%, 26.171875%, 42.167664%)" offset="0.71875"/><stop stop-opacity="1" stop-color="rgb(4.212952%, 26.38092%, 42.492676%)" offset="0.726562"/><stop stop-opacity="1" stop-color="rgb(4.258728%, 26.58844%, 42.816162%)" offset="0.734375"/><stop stop-opacity="1" stop-color="rgb(4.302979%, 26.797485%, 43.141174%)" offset="0.742188"/><stop stop-opacity="1" stop-color="rgb(4.348755%, 27.005005%, 43.464661%)" offset="0.75"/><stop stop-opacity="1" stop-color="rgb(4.394531%, 27.21405%, 43.789673%)" offset="0.757812"/><stop stop-opacity="1" stop-color="rgb(4.440308%, 27.423096%, 44.113159%)" offset="0.765625"/><stop stop-opacity="1" stop-color="rgb(4.486084%, 27.630615%, 44.438171%)" offset="0.773438"/><stop stop-opacity="1" stop-color="rgb(4.53186%, 27.839661%, 44.761658%)" offset="0.78125"/><stop stop-opacity="1" stop-color="rgb(4.577637%, 28.04718%, 45.08667%)" offset="0.789062"/><stop stop-opacity="1" stop-color="rgb(4.621887%, 28.256226%, 45.410156%)" offset="0.796875"/><stop stop-opacity="1" stop-color="rgb(4.667664%, 28.465271%, 45.735168%)" offset="0.804687"/><stop stop-opacity="1" stop-color="rgb(4.71344%, 28.672791%, 46.058655%)" offset="0.8125"/><stop stop-opacity="1" stop-color="rgb(4.759216%, 28.881836%, 46.383667%)" offset="0.820312"/><stop stop-opacity="1" stop-color="rgb(4.804993%, 29.089355%, 46.707153%)" offset="0.828125"/><stop stop-opacity="1" stop-color="rgb(4.850769%, 29.298401%, 47.032166%)" offset="0.835937"/><stop stop-opacity="1" stop-color="rgb(4.89502%, 29.507446%, 47.355652%)" offset="0.84375"/><stop stop-opacity="1" stop-color="rgb(4.940796%, 29.714966%, 47.680664%)" offset="0.851562"/><stop stop-opacity="1" stop-color="rgb(4.986572%, 29.924011%, 48.00415%)" offset="0.859375"/><stop stop-opacity="1" stop-color="rgb(5.032349%, 30.133057%, 48.329163%)" offset="0.867187"/><stop stop-opacity="1" stop-color="rgb(5.078125%, 30.340576%, 48.652649%)" offset="0.875"/><stop stop-opacity="1" stop-color="rgb(5.123901%, 30.549622%, 48.977661%)" offset="0.882812"/><stop stop-opacity="1" stop-color="rgb(5.169678%, 30.757141%, 49.301147%)" offset="0.890625"/><stop stop-opacity="1" stop-color="rgb(5.213928%, 30.966187%, 49.62616%)" offset="0.898437"/><stop stop-opacity="1" stop-color="rgb(5.259705%, 31.175232%, 49.949646%)" offset="0.90625"/><stop stop-opacity="1" stop-color="rgb(5.305481%, 31.382751%, 50.274658%)" offset="0.914062"/><stop stop-opacity="1" stop-color="rgb(5.351257%, 31.591797%, 50.598145%)" offset="0.921875"/><stop stop-opacity="1" stop-color="rgb(5.397034%, 31.799316%, 50.923157%)" offset="0.929687"/><stop stop-opacity="1" stop-color="rgb(5.44281%, 32.008362%, 51.246643%)" offset="0.9375"/><stop stop-opacity="1" stop-color="rgb(5.488586%, 32.217407%, 51.571655%)" offset="0.945312"/><stop stop-opacity="1" stop-color="rgb(5.532837%, 32.424927%, 51.895142%)" offset="0.953125"/><stop stop-opacity="1" stop-color="rgb(5.578613%, 32.633972%, 52.220154%)" offset="0.960937"/><stop stop-opacity="1" stop-color="rgb(5.62439%, 32.841492%, 52.54364%)" offset="0.96875"/><stop stop-opacity="1" stop-color="rgb(5.670166%, 33.050537%, 52.868652%)" offset="0.976562"/><stop stop-opacity="1" stop-color="rgb(5.715942%, 33.259583%, 53.192139%)" offset="0.984375"/><stop stop-opacity="1" stop-color="rgb(5.761719%, 33.467102%, 53.517151%)" offset="0.992187"/><stop stop-opacity="1" stop-color="rgb(5.807495%, 33.676147%, 53.840637%)" offset="1"/></linearGradient><clipPath id="ef55889cbe"><path d="M 259.832031 201.003906 L 364.082031 201.003906 L 364.082031 316 L 259.832031 316 Z M 259.832031 201.003906 " clip-rule="nonzero"/></clipPath><clipPath id="24960f533a"><path d="M 32.777344 32 L 324.527344 32 L 324.527344 294.304688 L 32.777344 294.304688 Z M 32.777344 32 " clip-rule="nonzero"/></clipPath><clipPath id="a4fc523a91"><path d="M 2.621094 2.621094 L 372.082031 2.621094 L 372.082031 372.082031 L 2.621094 372.082031 Z M 2.621094 2.621094 " clip-rule="nonzero"/></clipPath></defs><g clip-path="url(#58d5898964)"><g clip-path="url(#64d9343194)"><path fill="url(#0a5b3b06b8)" d="M 5.246094 5.246094 L 5.246094 369.746094 L 369.746094 369.746094 L 369.746094 5.246094 Z M 5.246094 5.246094 " fill-rule="nonzero"/></g></g><g clip-path="url(#ef55889cbe)"><path fill="#23a0be" d="M 12.269531 225 C 35.515625 225 58.757812 225 82 225 C 85.980469 225 89.242188 222.320312 90.402344 218.597656 C 104.929688 172.082031 119.457031 125.566406 133.984375 79.050781 C 128.378906 79.050781 122.78125 79.050781 117.175781 79.050781 C 134.609375 127.503906 152.039062 175.960938 169.472656 224.414062 C 172.246094 232.128906 184.03125 233.308594 186.28125 224.414062 C 205.652344 147.855469 225.023438 71.296875 244.386719 -5.261719 C 238.789062 -5.261719 233.183594 -5.261719 227.582031 -5.261719 C 245.984375 99.402344 264.378906 204.058594 282.785156 308.722656 C 284.066406 316.035156 295.539062 317.371094 298.710938 310.804688 C 312.703125 281.875 326.699219 252.941406 340.6875 224 C 344.167969 216.808594 329.851562 225 339.273438 225 C 348.445312 225 357.613281 225 366.785156 225 C 383.226562 225 399.671875 225 416.117188 225 C 427.355469 225 427.355469 207.558594 416.117188 207.558594 C 389 207.558594 361.886719 207.558594 334.765625 207.558594 C 331.882812 207.558594 328.546875 209.175781 327.242188 211.878906 C 312.714844 241.917969 298.191406 271.960938 283.664062 302.003906 C 288.972656 302.695312 294.28125 303.390625 299.589844 304.089844 C 281.1875 199.425781 262.789062 94.761719 244.386719 -9.898438 C 242.855469 -18.601562 229.601562 -17.878906 227.582031 -9.898438 C 208.210938 66.660156 188.839844 143.21875 169.472656 219.777344 C 175.078125 219.777344 180.675781 219.777344 186.28125 219.777344 C 168.851562 171.320312 151.417969 122.867188 133.984375 74.410156 C 131.097656 66.382812 119.851562 65.84375 117.175781 74.410156 C 102.652344 120.929688 88.125 167.445312 73.597656 213.960938 C 76.398438 211.828125 79.199219 209.691406 82 207.558594 C 58.757812 207.558594 35.515625 207.558594 12.269531 207.558594 C 1.027344 207.558594 1.027344 225 12.269531 225 Z M 12.269531 225 " fill-opacity="1" fill-rule="nonzero"/></g><g clip-path="url(#24960f533a)"><path fill="#23a0be" d="M 13.597656 281.84375 C 37.65625 281.84375 61.714844 281.84375 85.773438 281.84375 C 89.890625 281.84375 93.273438 279.066406 94.472656 275.210938 C 109.507812 227.03125 124.542969 178.855469 139.582031 130.679688 C 133.78125 130.679688 127.984375 130.679688 122.183594 130.679688 C 140.226562 180.863281 158.269531 231.050781 176.316406 281.234375 C 179.1875 289.226562 191.386719 290.445312 193.714844 281.234375 C 213.765625 201.941406 233.816406 122.648438 253.859375 43.359375 C 248.0625 43.359375 242.261719 43.359375 236.460938 43.359375 C 255.511719 151.757812 274.554688 260.152344 293.601562 368.554688 C 294.929688 376.128906 306.808594 377.511719 310.089844 370.710938 C 324.574219 340.75 339.058594 310.78125 353.539062 280.808594 C 357.144531 273.355469 342.324219 281.84375 352.074219 281.84375 C 361.566406 281.84375 371.058594 281.84375 380.550781 281.84375 C 397.570312 281.84375 414.59375 281.84375 431.617188 281.84375 C 443.25 281.84375 443.25 263.777344 431.617188 263.777344 C 403.546875 263.777344 375.480469 263.777344 347.410156 263.777344 C 344.425781 263.777344 340.972656 265.449219 339.621094 268.25 C 324.585938 299.363281 309.550781 330.480469 294.511719 361.59375 C 300.011719 362.3125 305.503906 363.03125 311 363.753906 C 291.949219 255.355469 272.910156 146.953125 253.859375 38.554688 C 252.273438 29.539062 238.554688 30.289062 236.460938 38.554688 C 216.414062 117.847656 196.363281 197.136719 176.316406 276.433594 C 182.117188 276.433594 187.914062 276.433594 193.714844 276.433594 C 175.671875 226.242188 157.628906 176.058594 139.582031 125.875 C 136.59375 117.558594 124.953125 117 122.183594 125.875 C 107.148438 174.054688 92.113281 222.230469 77.074219 270.410156 C 79.972656 268.199219 82.875 265.988281 85.773438 263.777344 C 61.714844 263.777344 37.65625 263.777344 13.597656 263.777344 C 1.960938 263.777344 1.960938 281.84375 13.597656 281.84375 Z M 13.597656 281.84375 " fill-opacity="1" fill-rule="nonzero"/></g><g clip-path="url(#a4fc523a91)"><path fill="#23a0be" d="M 187.351562 372.082031 C 138.03125 372.082031 91.589844 352.886719 56.742188 317.960938 C 21.820312 283.113281 2.621094 236.671875 2.621094 187.351562 C 2.621094 138.03125 21.820312 91.589844 56.742188 56.742188 C 91.589844 21.820312 138.03125 2.621094 187.351562 2.621094 C 236.671875 2.621094 283.113281 21.820312 317.960938 56.742188 C 352.886719 91.664062 372.082031 138.03125 372.082031 187.351562 C 372.082031 236.671875 352.886719 283.113281 317.960938 317.960938 C 283.113281 352.886719 236.671875 372.082031 187.351562 372.082031 Z M 187.351562 13.699219 C 140.984375 13.699219 97.351562 31.785156 64.566406 64.566406 C 31.785156 97.351562 13.699219 140.984375 13.699219 187.351562 C 13.699219 233.71875 31.785156 277.355469 64.566406 310.136719 C 97.351562 342.917969 140.984375 361.007812 187.351562 361.007812 C 233.71875 361.007812 277.355469 342.917969 310.136719 310.136719 C 342.917969 277.355469 361.007812 233.71875 361.007812 187.351562 C 361.007812 140.984375 342.917969 97.351562 310.136719 64.566406 C 277.355469 31.785156 233.71875 13.699219 187.351562 13.699219 Z M 187.351562 13.699219 " fill-opacity="1" fill-rule="nonzero"/></g></svg>